#!OML:ASF I:\Actors\actors\Patient Classification 2\Patient 1\Session 1\actor1.ASF
:FULLY-SPECIFIED
:DEGREES
678
root -0.822853 18.6907 5.89021 1.37361 -2.89565 -1.72962
lowerback 3.82698 0.816026 -0.130269
upperback -2.96967 1.09948 0.346386
thorax -5.22839 0.556534 0.340392
lowerneck -12.5043 2.17549 3.89517
upperneck 22.6449 2.09241 0.317682
head 9.22365 1.34736 -0.303462
rclavicle 4.85159e-015 -3.18055e-015
rhumerus -57.6994 -7.21173 -81.3184
rradius 45.1373
rwrist 9.83119
rhand -3.18867 -37.743
rfingers 7.12502
rthumb 22.5329 -426.448
lclavicle 4.85159e-015 -3.18055e-015
lhumerus -49.3946 6.77507 84.6783
lradius 41.3395
lwrist 1.51252
lhand -11.3515 -19.1777
lfingers 7.12502
lthumb 14.6818 10.2824
rfemur 7.15837 5.61456 16.5245
rtibia 9.54166e-015
rfoot -18.642 -12.2591
rtoes -3.7132
lfemur -2.90443 -6.82859 -12.5025
ltibia 19.9286
lfoot -23.4199 15.8963
ltoes -54.8958
679
root -0.821516 18.691 5.8862 1.38532 -2.8393 -1.74735
lowerback 3.85154 0.831718 -0.148035
upperback -2.98807 1.12029 0.363389
thorax -5.26257 0.567868 0.365684
lowerneck -12.5092 2.13604 3.7443
upperneck 22.6784 2.04728 0.416908
head 9.23205 1.32465 -0.249295
rclavicle -1.34987e-014 -3.97569e-016
rhumerus -57.7779 -7.00437 -81.5697
rradius 45.3508
rwrist 9.78891
rhand -2.77091 -37.3143
rfingers 7.12502
rthumb 22.9338 -425.97
lclavicle -1.34987e-014 -3.97569e-016
lhumerus -49.1752 6.45977 85.0457
lradius 41.6141
lwrist 1.39832
lhand -11.1669 -19.5766
lfingers 7.12502
lthumb 14.8597 9.87056
rfemur 7.14144 5.55909 16.5364
rtibia -4.77083e-015
rfoot -18.6783 -12.251
rtoes -3.60896
lfemur -2.95662 -6.83816 -12.4765
ltibia 19.9484
lfoot -23.4255 15.9048
ltoes -54.9531
680
root -0.819298 18.6917 5.88142 1.41221 -2.77558 -1.71819
lowerback 3.84142 0.838268 -0.194842
upperback -3.00073 1.12586 0.356672
thorax -5.27089 0.57226 0.384538
lowerneck -12.4999 2.11336 3.64672
upperneck 22.6893 2.01951 0.494508
head 9.23136 1.31199 -0.209665
rclavicle 4.34841e-016 -5.96354e-015
rhumerus -57.7625 -6.81587 -81.8191
rradius 45.5565
rwrist 9.69667
rhand -2.38554 -36.8995
rfingers 7.12502
rthumb 23.3036 -425.509
lclavicle 4.34841e-016 -5.96354e-015
lhumerus -48.9288 6.14885 85.4028
lradius 41.9287
lwrist 1.31718
lhand -11.016 -19.9262
lfingers 7.12502
lthumb 15.005 9.51015
rfemur 7.10114 5.49512 16.4921
rtibia -1.43125e-014
rfoot -18.7171 -12.2496
rtoes -3.56659
lfemur -3.02499 -6.94519 -12.5131
ltibia 19.9578
lfoot -23.4748 15.9608
ltoes -54.9658
681
root -0.816935 18.6922 5.87626 1.43107 -2.70295 -1.68096
lowerback 3.79698 0.832013 -0.240289
upperback -2.97849 1.11413 0.346195
thorax -5.2228 0.567875 0.401011
lowerneck -12.4772 2.09694 3.60662
upperneck 22.6414 2.00503 0.503032
head 9.20946 1.30225 -0.202237
rclavicle -1.73812e-014 1.19271e-015
rhumerus -57.6404 -6.68757 -82.0245
rradius 45.7338
rwrist 9.66071
rhand -2.15923 -36.4454
rfingers 7.12502
rthumb 23.5207 -425.027
lclavicle -1.73812e-014 1.19271e-015
lhumerus -48.599 5.92616 85.7019
lradius 42.1613
lwrist 1.2403
lhand -10.8912 -20.3015
lfingers 7.12502
lthumb 15.1253 9.12583
rfemur 7.07479 5.42258 16.4382
rtibia 1.43125e-014
rfoot -18.6966 -12.2304
rtoes -3.49168
lfemur -3.08899 -6.99634 -12.5546
ltibia 19.967
lfoot -23.4351 15.9361
ltoes -54.9931
682
root -0.815256 18.6929 5.87147 1.44805 -2.66125 -1.69076
lowerback 3.75164 0.836039 -0.244145
upperback -2.95437 1.11898 0.340942
thorax -5.17168 0.57027 0.398237
lowerneck -12.5201 2.07497 3.57622
upperneck 22.6788 1.97143 0.534423
head 9.22924 1.28776 -0.189663
rclavicle -1.14798e-014 1.98785e-015
rhumerus -57.4464 -6.60514 -82.2016
rradius 45.8476
rwrist 9.61307
rhand -2.05842 -36.0589
rfingers 7.12502
rthumb 23.6174 -424.628
lclavicle -1.14798e-014 1.98785e-015
lhumerus -48.2786 5.6209 86.0166
lradius 42.4077
lwrist 1.31168
lhand -10.8539 -20.5632
lfingers 7.12502
lthumb 15.1612 8.86138
rfemur 7.04878 5.38137 16.4403
rtibia 3.33958e-014
rfoot -18.6595 -12.2003
rtoes -3.3823
lfemur -3.14367 -6.9322 -12.5307
ltibia 19.9687
lfoot -23.3267 15.8531
ltoes -55.0724
683
root -0.813716 18.6941 5.86727 1.46618 -2.64939 -1.7046
lowerback 3.74229 0.844559 -0.243787
upperback -2.97097 1.1297 0.325145
thorax -5.18348 0.575297 0.380806
lowerneck -12.5959 2.06289 3.55724
upperneck 22.8217 1.93799 0.602112
head 9.29196 1.27946 -0.165582
rclavicle 2.49351e-014 4.96962e-015
rhumerus -57.2971 -6.4939 -82.4126
rradius 46.002
rwrist 9.42476
rhand -2.09184 -35.9698
rfingers 7.12502
rthumb 23.5853 -424.543
lclavicle 2.49351e-014 4.96962e-015
lhumerus -48.0745 5.32416 86.2467
lradius 42.6196
lwrist 1.44285
lhand -10.9055 -21.222
lfingers 7.12502
lthumb 15.1115 8.20637
rfemur 7.01454 5.36988 16.448
rtibia 4.77083e-015
rfoot -18.6324 -12.2018
rtoes -3.30092
lfemur -3.19339 -6.89148 -12.5064
ltibia 19.9788
lfoot -23.279 15.8018
ltoes -55.0406
684
root -0.812395 18.6945 5.86256 1.43622 -2.6333 -1.67245
lowerback 3.79483 0.853012 -0.297242
upperback -2.98024 1.13674 0.304821
thorax -5.22389 0.580356 0.388236
lowerneck -12.6718 2.05257 3.53706
upperneck 22.9386 1.91506 0.638447
head 9.34618 1.27232 -0.150947
rclavicle 6.06293e-015 -1.98785e-015
rhumerus -57.1767 -6.37615 -82.6132
rradius 46.2767
rwrist 9.16921
rhand -2.16325 -36.1673
rfingers 7.12502
rthumb 23.5168 -424.75
lclavicle 6.06293e-015 -1.98785e-015
lhumerus -47.812 5.20339 86.3632
lradius 42.5907
lwrist 1.49789
lhand -10.9455 -22.3634
lfingers 7.12502
lthumb 15.073 7.06787
rfemur 7.0299 5.35641 16.408
rtibia 1.11319e-014
rfoot -18.6245 -12.2037
rtoes -3.10916
lfemur -3.20302 -6.87969 -12.5424
ltibia 20.018
lfoot -23.276 15.7451
ltoes -54.9434
685
root -0.801802 18.6938 5.85294 1.30267 -2.59874 -1.65516
lowerback 4.00423 0.851973 -0.186099
upperback -2.95738 1.14003 0.26221
thorax -5.31645 0.576919 0.278445
lowerneck -12.647 2.03322 3.57346
upperneck 22.8988 1.89426 0.584299
head 9.3282 1.25939 -0.178599
rclavicle 7.72775e-015 3.97569e-015
rhumerus -57.0519 -6.45191 -82.6646
rradius 46.6642
rwrist 9.14525
rhand -2.18936 -36.2568
rfingers 7.12502
rthumb 23.4918 -424.842
lclavicle 7.72775e-015 3.97569e-015
lhumerus -47.4771 4.97911 86.6054
lradius 42.7384
lwrist 1.71404
lhand -10.9605 -22.5065
lfingers 7.12502
lthumb 15.0586 6.92578
rfemur 7.12537 5.33601 16.3586
rtibia 2.38542e-014
rfoot -18.6027 -12.2367
rtoes -3.19576
lfemur -3.12894 -6.97175 -12.6195
ltibia 20.0662
lfoot -23.2927 15.8014
ltoes -54.9536
686
root -0.781243 18.6938 5.83993 1.14517 -2.51373 -1.65667
lowerback 4.29687 0.824999 0.112496
upperback -2.94666 1.1205 0.195032
thorax -5.46507 0.554427 0.0386544
lowerneck -12.5644 2.01432 3.61274
upperneck 22.8295 1.87894 0.519264
head 9.28928 1.24775 -0.210543
rclavicle -8.21229e-015 2.5842e-015
rhumerus -56.9349 -6.6156 -82.6241
rradius 47.0972
rwrist 9.26029
rhand -2.35461 -36.0833
rfingers 7.12502
rthumb 23.3332 -424.689
lclavicle -8.21229e-015 2.5842e-015
lhumerus -47.2533 4.60999 86.9714
lradius 43.2536
lwrist 2.06182
lhand -11.0063 -21.6674
lfingers 7.12502
lthumb 15.0145 7.7682
rfemur 7.2273 5.27213 16.2953
rtibia -1.11319e-014
rfoot -18.543 -12.2906
rtoes -3.52859
lfemur -3.05381 -7.23035 -12.7273
ltibia 20.1083
lfoot -23.3394 15.9538
ltoes -54.9759
687
root -0.770609 18.6935 5.83321 1.06939 -2.39511 -1.63723
lowerback 4.38768 0.794452 0.221723
upperback -2.92556 1.08645 0.178984
thorax -5.49246 0.533021 -0.037364
lowerneck -12.5691 2.00962 3.53727
upperneck 22.8432 1.88242 0.548103
head 9.29357 1.24625 -0.187476
rclavicle -3.3048e-015 -3.37934e-015
rhumerus -56.6992 -6.57733 -82.6346
rradius 47.392
rwrist 9.1258
rhand -2.60812 -35.9333
rfingers 7.12502
rthumb 23.09 -424.57
lclavicle -3.3048e-015 -3.37934e-015
lhumerus -47.0075 4.41442 87.2649
lradius 43.6014
lwrist 2.25089
lhand -11.0967 -21.2171
lfingers 7.12502
lthumb 14.9273 8.22506
rfemur 7.29513 5.16363 16.2416
rtibia -1.43125e-014
rfoot -18.5348 -12.2878
rtoes -3.50256
lfemur -3.04671 -7.39692 -12.7955
ltibia 20.1463
lfoot -23.3509 15.9688
ltoes -54.9965
688
root -0.771486 18.692 5.83213 1.04209 -2.28981 -1.6341
lowerback 4.31078 0.779729 0.152091
upperback -2.88277 1.06323 0.211074
thorax -5.40555 0.525016 0.0385697
lowerneck -12.5553 2.00384 3.48065
upperneck 22.8067 1.87946 0.584417
head 9.27704 1.24365 -0.16621
rclavicle 2.07481e-015 -1.98785e-016
rhumerus -56.4048 -6.50349 -82.6521
rradius 47.6353
rwrist 8.83266
rhand -2.816 -36.012
rfingers 7.12502
rthumb 22.8905 -424.673
lclavicle 2.07481e-015 -1.98785e-016
lhumerus -46.7154 4.25669 87.5039
lradius 43.7628
lwrist 2.44421
lhand -11.1615 -21.1964
lfingers 7.12502
lthumb 14.8649 8.25035
rfemur 7.3536 5.0589 16.2492
rtibia 1.27222e-014
rfoot -18.5931 -12.2642
rtoes -3.34155
lfemur -3.05712 -7.3767 -12.7723
ltibia 20.1701
lfoot -23.339 15.8423
ltoes -54.9771
689
root -0.774158 18.6911 5.82977 1.02783 -2.22627 -1.63413
lowerback 4.2614 0.785634 0.0796205
upperback -2.86221 1.06648 0.21908
thorax -5.35729 0.529574 0.0881169
lowerneck -12.4895 1.98909 3.55135
upperneck 22.737 1.85127 0.563988
head 9.2412 1.23362 -0.18938
rclavicle 7.29291e-015 7.95139e-015
rhumerus -56.1546 -6.52127 -82.6739
rradius 47.9246
rwrist 8.52414
rhand -3.12115 -36.0922
rfingers 7.12502
rthumb 22.5977 -424.789
lclavicle 7.29291e-015 7.95139e-015
lhumerus -46.5136 3.94634 87.7266
lradius 43.9854
lwrist 2.72858
lhand -11.1317 -21.2648
lfingers 7.12502
lthumb 14.8936 8.17985
rfemur 7.38748 4.99477 16.2627
rtibia -2.8625e-014
rfoot -18.6159 -12.2415
rtoes -3.22438
lfemur -3.06097 -7.30805 -12.7358
ltibia 20.1663
lfoot -23.3179 15.7068
ltoes -54.9026
690
root -0.777191 18.6906 5.82647 1.02969 -2.22126 -1.63065
lowerback 4.23901 0.804056 0.0153954
upperback -2.86331 1.08659 0.214309
thorax -5.34681 0.541833 0.117727
lowerneck -12.4526 1.98432 3.62158
upperneck 22.7018 1.8389 0.530352
head 9.22312 1.22985 -0.214647
rclavicle -1.22501e-014 -3.97569e-016
rhumerus -55.9119 -6.51407 -82.7149
rradius 48.1972
rwrist 8.19655
rhand -3.4564 -35.899
rfingers 7.12502
rthumb 22.2759 -424.635
lclavicle -1.22501e-014 -3.97569e-016
lhumerus -46.3517 3.61685 87.9185
lradius 44.2043
lwrist 3.00531
lhand -11.0549 -21.3814
lfingers 7.12502
lthumb 14.9676 8.05774
rfemur 7.38868 4.98832 16.2695
rtibia 7.95139e-015
rfoot -18.5972 -12.2109
rtoes -3.17341
lfemur -3.05701 -7.25915 -12.7153
ltibia 20.1396
lfoot -23.306 15.6349
ltoes -54.8996
691
root -0.779298 18.6902 5.82404 1.03686 -2.20135 -1.63111
lowerback 4.20623 0.802132 -0.0363501
upperback -2.86331 1.08118 0.226724
thorax -5.3293 0.541341 0.160567
lowerneck -12.4352 1.99495 3.60861
upperneck 22.6691 1.86209 0.513026
head 9.20878 1.23738 -0.216047
rclavicle 9.18137e-015 -2.18663e-015
rhumerus -55.6236 -6.47687 -82.718
rradius 48.4246
rwrist 8.01917
rhand -4.21856 -35.476
rfingers 7.12502
rthumb 21.5441 -424.298
lclavicle 9.18137e-015 -2.18663e-015
lhumerus -46.164 3.38539 88.0933
lradius 44.3441
lwrist 3.19652
lhand -11.036 -21.499
lfingers 7.12502
lthumb 14.9858 7.93872
rfemur 7.38814 4.96661 16.2807
rtibia -6.36111e-015
rfoot -18.6039 -12.2038
rtoes -3.37388
lfemur -3.05023 -7.25246 -12.6971
ltibia 20.1029
lfoot -23.3079 15.5704
ltoes -54.8637
